<svg width="17" height="17" viewBox="0 0 17 17" fill="none" xmlns="http://www.w3.org/2000/svg">
<path d="M0.210105 1.38708L0.293106 1.29308C0.465298 1.1209 0.694398 1.01747 0.937424 1.00219C1.18045 0.986911 1.4207 1.06083 1.61311 1.21008L1.70711 1.29308L8.00011 7.58508L14.2931 1.29308C14.3854 1.19757 14.4957 1.12139 14.6177 1.06898C14.7397 1.01657 14.8709 0.988985 15.0037 0.987831C15.1365 0.986677 15.2682 1.01198 15.3911 1.06226C15.514 1.11254 15.6256 1.18679 15.7195 1.28069C15.8134 1.37458 15.8876 1.48623 15.9379 1.60913C15.9882 1.73202 16.0135 1.8637 16.0124 1.99648C16.0112 2.12926 15.9836 2.26048 15.9312 2.38249C15.8788 2.50449 15.8026 2.61483 15.7071 2.70708L9.41511 9.00008L15.7071 15.2931C15.8793 15.4653 15.9827 15.6944 15.998 15.9374C16.0133 16.1804 15.9394 16.4207 15.7901 16.6131L15.7071 16.7071C15.5349 16.8793 15.3058 16.9827 15.0628 16.998C14.8198 17.0133 14.5795 16.9393 14.3871 16.7901L14.2931 16.7071L8.00011 10.4151L1.70711 16.7071C1.5185 16.8892 1.2659 16.99 1.0037 16.9878C0.741507 16.9855 0.490695 16.8803 0.305287 16.6949C0.119879 16.5095 0.0147096 16.2587 0.0124312 15.9965C0.0101527 15.7343 0.110948 15.4817 0.293106 15.2931L6.58511 9.00008L0.293106 2.70708C0.120929 2.53489 0.0174975 2.30579 0.00221635 2.06276C-0.0130648 1.81974 0.0608542 1.57949 0.210105 1.38708L0.293106 1.29308L0.210105 1.38708Z" fill="#292D33"/>
</svg>
