<svg width="24" height="25" viewBox="0 0 24 25" fill="none" xmlns="http://www.w3.org/2000/svg">
<g filter="url(#filter0_d_9342_1528)">
<path d="M10.6875 8.49036C10.5164 8.39159 10.3224 8.3396 10.1248 8.33963C9.92728 8.33967 9.73323 8.39171 9.56219 8.49054C9.39115 8.58936 9.24914 8.73148 9.15045 8.9026C9.05176 9.07372 8.99987 9.26782 9 9.46536V15.9649C8.99987 16.1624 9.05176 16.3565 9.15045 16.5276C9.24914 16.6987 9.39115 16.8409 9.56219 16.9397C9.73323 17.0385 9.92728 17.0905 10.1248 17.0906C10.3224 17.0906 10.5164 17.0386 10.6875 16.9399L16.875 13.3639C16.989 13.298 17.0837 13.2033 17.1495 13.0893C17.2153 12.9753 17.25 12.846 17.25 12.7144C17.25 12.5827 17.2153 12.4534 17.1495 12.3394C17.0837 12.2254 16.989 12.1307 16.875 12.0649L10.6875 8.49036ZM0 12.7144C0 9.53176 1.26428 6.47951 3.51472 4.22907C5.76516 1.97864 8.8174 0.714355 12 0.714355C15.1826 0.714355 18.2348 1.97864 20.4853 4.22907C22.7357 6.47951 24 9.53176 24 12.7144C24 15.897 22.7357 18.9492 20.4853 21.1996C18.2348 23.4501 15.1826 24.7144 12 24.7144C8.8174 24.7144 5.76516 23.4501 3.51472 21.1996C1.26428 18.9492 0 15.897 0 12.7144V12.7144ZM12 2.21436C10.6211 2.21436 9.25574 2.48595 7.98182 3.01362C6.70791 3.54129 5.55039 4.31472 4.57538 5.28973C3.60036 6.26475 2.82694 7.42226 2.29926 8.69618C1.77159 9.9701 1.5 11.3355 1.5 12.7144C1.5 14.0932 1.77159 15.4586 2.29926 16.7325C2.82694 18.0065 3.60036 19.164 4.57538 20.139C5.55039 21.114 6.70791 21.8874 7.98182 22.4151C9.25574 22.9428 10.6211 23.2144 12 23.2144C14.7848 23.2144 17.4555 22.1081 19.4246 20.139C21.3938 18.1698 22.5 15.4991 22.5 12.7144C22.5 9.92958 21.3938 7.25887 19.4246 5.28973C17.4555 3.3206 14.7848 2.21436 12 2.21436Z" fill="white"/>
<path d="M10.4373 16.507C10.3423 16.5618 10.2346 16.5906 10.1249 16.5906C10.0152 16.5906 9.90735 16.5616 9.81233 16.5067C9.7173 16.4518 9.63841 16.3729 9.58358 16.2778C9.52876 16.1827 9.49993 16.0749 9.5 15.9652V15.9649V9.46536V9.46503C9.49993 9.35529 9.52876 9.24746 9.58358 9.15239C9.63841 9.05733 9.7173 8.97837 9.81233 8.92347C9.90735 8.86857 10.0152 8.83965 10.1249 8.83963C10.2346 8.83962 10.3424 8.86847 10.4374 8.9233L10.6875 8.49036C10.5164 8.39159 10.3224 8.3396 10.1248 8.33963C9.92728 8.33967 9.73323 8.39171 9.56219 8.49054C9.39114 8.58936 9.24914 8.73148 9.15045 8.9026C9.05176 9.07372 8.99987 9.26782 9 9.46536V15.9649C8.99987 16.1624 9.05176 16.3565 9.15045 16.5276C9.24914 16.6987 9.39114 16.8409 9.56219 16.9397C9.73323 17.0385 9.92728 17.0905 10.1248 17.0906C10.3224 17.0906 10.5164 17.0386 10.6875 16.9399M10.4373 16.507L10.6875 16.9399M10.4373 16.507C10.4374 16.5069 10.4374 16.5069 10.4375 16.5068M10.4373 16.507L10.4375 16.5068M10.6875 16.9399L10.4375 16.5068M10.6875 16.9399L16.875 13.3639C16.989 13.298 17.0837 13.2033 17.1495 13.0893C17.2153 12.9753 17.25 12.846 17.25 12.7144C17.25 12.5827 17.2153 12.4534 17.1495 12.3394L10.4375 16.5068M10.4375 16.5068L16.6248 12.931L16.625 12.9309C16.663 12.9089 16.6945 12.8774 16.7165 12.8393C16.7384 12.8013 16.75 12.7582 16.75 12.7144C16.75 12.6705 16.7384 12.6274 16.7165 12.5894C16.6945 12.5514 16.663 12.5198 16.625 12.4979L16.6249 12.4978L10.4375 8.92337V16.5068ZM0.5 12.7144C0.5 9.66437 1.7116 6.7393 3.86827 4.58263C6.02494 2.42596 8.95001 1.21436 12 1.21436C15.05 1.21436 17.9751 2.42596 20.1317 4.58263C22.2884 6.7393 23.5 9.66437 23.5 12.7144C23.5 15.7643 22.2884 18.6894 20.1317 20.8461C17.9751 23.0028 15.05 24.2144 12 24.2144C8.95001 24.2144 6.02494 23.0028 3.86827 20.8461C1.7116 18.6894 0.5 15.7643 0.5 12.7144ZM12 1.71436C10.5555 1.71436 9.12506 1.99888 7.79048 2.55168C6.4559 3.10448 5.24327 3.91474 4.22183 4.93618C3.20038 5.95763 2.39013 7.17026 1.83732 8.50484C1.28452 9.83942 1 11.2698 1 12.7144C1 14.1589 1.28452 15.5893 1.83732 16.9239C2.39013 18.2585 3.20038 19.4711 4.22183 20.4925C5.24327 21.514 6.4559 22.3242 7.79048 22.877C9.12506 23.4298 10.5555 23.7144 12 23.7144C14.9174 23.7144 17.7153 22.5554 19.7782 20.4925C21.8411 18.4296 23 15.6317 23 12.7144C23 9.79697 21.8411 6.99908 19.7782 4.93618C17.7153 2.87328 14.9174 1.71436 12 1.71436Z" stroke="black"/>
</g>
<defs>
<filter id="filter0_d_9342_1528" x="-4" y="0.714355" width="32" height="32" filterUnits="userSpaceOnUse" color-interpolation-filters="sRGB">
<feFlood flood-opacity="0" result="BackgroundImageFix"/>
<feColorMatrix in="SourceAlpha" type="matrix" values="0 0 0 0 0 0 0 0 0 0 0 0 0 0 0 0 0 0 127 0" result="hardAlpha"/>
<feOffset dy="4"/>
<feGaussianBlur stdDeviation="2"/>
<feComposite in2="hardAlpha" operator="out"/>
<feColorMatrix type="matrix" values="0 0 0 0 0 0 0 0 0 0 0 0 0 0 0 0 0 0 0.25 0"/>
<feBlend mode="normal" in2="BackgroundImageFix" result="effect1_dropShadow_9342_1528"/>
<feBlend mode="normal" in="SourceGraphic" in2="effect1_dropShadow_9342_1528" result="shape"/>
</filter>
</defs>
</svg>
