<svg width="20" height="20" viewBox="0 0 20 20" fill="none" xmlns="http://www.w3.org/2000/svg">
<g clip-path="url(#clip0_147_5917)">
<g filter="url(#filter0_d_147_5917)">
<path d="M8.90625 6.48C8.76369 6.39769 8.60197 6.35437 8.43735 6.3544C8.27273 6.35443 8.11103 6.3978 7.96849 6.48015C7.82595 6.5625 7.70762 6.68094 7.62538 6.82354C7.54314 6.96614 7.49989 7.12788 7.5 7.2925V12.7087C7.49989 12.8734 7.54314 13.0351 7.62538 13.1777C7.70762 13.3203 7.82595 13.4387 7.96849 13.5211C8.11103 13.6035 8.27273 13.6468 8.43735 13.6469C8.60197 13.6469 8.76369 13.6036 8.90625 13.5213L14.0625 10.5412C14.1575 10.4864 14.2364 10.4075 14.2912 10.3125C14.3461 10.2175 14.375 10.1097 14.375 10C14.375 9.89029 14.3461 9.78252 14.2912 9.68751C14.2364 9.59251 14.1575 9.51361 14.0625 9.45875L8.90625 6.48ZM0 10C0 7.34784 1.05357 4.8043 2.92893 2.92893C4.8043 1.05357 7.34784 0 10 0C12.6522 0 15.1957 1.05357 17.0711 2.92893C18.9464 4.8043 20 7.34784 20 10C20 12.6522 18.9464 15.1957 17.0711 17.0711C15.1957 18.9464 12.6522 20 10 20C7.34784 20 4.8043 18.9464 2.92893 17.0711C1.05357 15.1957 0 12.6522 0 10V10ZM10 1.25C8.85093 1.25 7.71312 1.47633 6.65152 1.91605C5.58992 2.35578 4.62533 3.0003 3.81282 3.81282C3.0003 4.62533 2.35578 5.58992 1.91605 6.65152C1.47633 7.71312 1.25 8.85093 1.25 10C1.25 11.1491 1.47633 12.2869 1.91605 13.3485C2.35578 14.4101 3.0003 15.3747 3.81282 16.1872C4.62533 16.9997 5.58992 17.6442 6.65152 18.0839C7.71312 18.5237 8.85093 18.75 10 18.75C12.3206 18.75 14.5462 17.8281 16.1872 16.1872C17.8281 14.5462 18.75 12.3206 18.75 10C18.75 7.67936 17.8281 5.45376 16.1872 3.81282C14.5462 2.17187 12.3206 1.25 10 1.25Z" fill="#292D33"/>
<path d="M8.90625 13.5213L14.0625 10.5412L8.65607 13.0883C8.58959 13.1267 8.51418 13.1469 8.43743 13.1469C8.36061 13.1468 8.28515 13.1266 8.21863 13.0882C8.15211 13.0497 8.09689 12.9945 8.05851 12.9279C8.02013 12.8614 7.99995 12.7859 8 12.7091V12.7087V7.2925V7.29218C7.99995 7.21536 8.02013 7.13988 8.05851 7.07333C8.09689 7.00678 8.15211 6.95151 8.21863 6.91308C8.28515 6.87465 8.36061 6.85441 8.43743 6.8544C8.51421 6.85439 8.58964 6.87458 8.65614 6.91295L8.90625 6.48L8.65625 6.91301L13.8124 9.8917L13.8125 9.89175C13.8315 9.90272 13.8473 9.9185 13.8582 9.9375C13.8692 9.95651 13.875 9.97806 13.875 10C13.875 10.0219 13.8692 10.0435 13.8582 10.0625C13.8473 10.0815 13.8315 10.0973 13.8125 10.1082L13.8123 10.1083L8.65625 13.0882L8.90625 13.5213ZM0.5 10C0.5 7.48044 1.50089 5.06408 3.28249 3.28249C5.06408 1.50089 7.48044 0.5 10 0.5C12.5196 0.5 14.9359 1.50089 16.7175 3.28249C18.4991 5.06408 19.5 7.48044 19.5 10C19.5 12.5196 18.4991 14.9359 16.7175 16.7175C14.9359 18.4991 12.5196 19.5 10 19.5C7.48044 19.5 5.06408 18.4991 3.28249 16.7175C1.50089 14.9359 0.5 12.5196 0.5 10ZM10 0.75C8.78527 0.75 7.58244 0.989258 6.46018 1.45411C5.33792 1.91897 4.3182 2.60032 3.45926 3.45926C2.60032 4.3182 1.91897 5.33792 1.45411 6.46018C0.989258 7.58244 0.75 8.78527 0.75 10C0.75 11.2147 0.989258 12.4176 1.45411 13.5398C1.91897 14.6621 2.60032 15.6818 3.45926 16.5407C4.3182 17.3997 5.33792 18.081 6.46018 18.5459C7.58244 19.0107 8.78527 19.25 10 19.25C12.4533 19.25 14.806 18.2754 16.5407 16.5407C18.2754 14.806 19.25 12.4533 19.25 10C19.25 7.54675 18.2754 5.19397 16.5407 3.45926C14.806 1.72455 12.4533 0.75 10 0.75Z" stroke="black"/>
</g>
</g>
<defs>
<filter id="filter0_d_147_5917" x="-4" y="0" width="28" height="28" filterUnits="userSpaceOnUse" color-interpolation-filters="sRGB">
<feFlood flood-opacity="0" result="BackgroundImageFix"/>
<feColorMatrix in="SourceAlpha" type="matrix" values="0 0 0 0 0 0 0 0 0 0 0 0 0 0 0 0 0 0 127 0" result="hardAlpha"/>
<feOffset dy="4"/>
<feGaussianBlur stdDeviation="2"/>
<feComposite in2="hardAlpha" operator="out"/>
<feColorMatrix type="matrix" values="0 0 0 0 0 0 0 0 0 0 0 0 0 0 0 0 0 0 0.25 0"/>
<feBlend mode="normal" in2="BackgroundImageFix" result="effect1_dropShadow_147_5917"/>
<feBlend mode="normal" in="SourceGraphic" in2="effect1_dropShadow_147_5917" result="shape"/>
</filter>
<clipPath id="clip0_147_5917">
<rect width="20" height="20" fill="white"/>
</clipPath>
</defs>
</svg>
